<svg width="1291" height="1731" viewBox="0 0 1291 1731" fill="none" xmlns="http://www.w3.org/2000/svg">
<g filter="url(#filter0_b_148_2)">
<rect x="35.5" y="54.5" width="1218" height="1624" rx="68.5" stroke="white" stroke-opacity="0.9" stroke-width="25"/>
<path d="M266.399 718.862C283.211 718.862 297.118 704.956 297.118 688.143C297.118 671.331 283.18 657.456 266.368 657.456C249.555 657.456 235.68 671.331 235.68 688.143C235.68 704.956 249.586 718.862 266.399 718.862ZM266.399 712.393C252.961 712.393 242.18 701.612 242.18 688.143C242.18 674.706 252.93 663.893 266.368 663.893C279.836 663.893 290.649 674.706 290.649 688.143C290.649 701.612 279.836 712.393 266.399 712.393ZM255.899 702.425H276.868C280.18 702.425 281.899 700.706 281.899 697.425V678.893C281.899 675.612 280.18 673.893 276.868 673.893H255.899C252.586 673.893 250.836 675.612 250.836 678.893V697.425C250.836 700.706 252.586 702.425 255.899 702.425ZM255.93 699.175C254.711 699.175 254.086 698.581 254.086 697.331V683.331C254.086 682.018 254.774 681.393 256.024 681.393H276.711C277.993 681.393 278.649 682.018 278.649 683.331V697.331C278.649 698.581 278.055 699.175 276.805 699.175H255.93ZM263.368 686.862H264.43C265.086 686.862 265.305 686.643 265.305 686.018V684.925C265.305 684.268 265.086 684.05 264.43 684.05H263.368C262.68 684.05 262.493 684.268 262.493 684.925V686.018C262.493 686.643 262.68 686.862 263.368 686.862ZM268.336 686.862H269.399C270.055 686.862 270.274 686.643 270.274 686.018V684.925C270.274 684.268 270.055 684.05 269.399 684.05H268.336C267.68 684.05 267.461 684.268 267.461 684.925V686.018C267.461 686.643 267.68 686.862 268.336 686.862ZM273.274 686.862H274.336C274.993 686.862 275.211 686.643 275.211 686.018V684.925C275.211 684.268 274.993 684.05 274.336 684.05H273.274C272.618 684.05 272.399 684.268 272.399 684.925V686.018C272.399 686.643 272.618 686.862 273.274 686.862ZM258.43 691.706H259.461C260.149 691.706 260.368 691.518 260.368 690.893V689.8C260.368 689.143 260.149 688.925 259.461 688.925H258.43C257.774 688.925 257.524 689.143 257.524 689.8V690.893C257.524 691.518 257.774 691.706 258.43 691.706ZM263.368 691.706H264.43C265.086 691.706 265.305 691.518 265.305 690.893V689.8C265.305 689.143 265.086 688.925 264.43 688.925H263.368C262.68 688.925 262.493 689.143 262.493 689.8V690.893C262.493 691.518 262.68 691.706 263.368 691.706ZM268.336 691.706H269.399C270.055 691.706 270.274 691.518 270.274 690.893V689.8C270.274 689.143 270.055 688.925 269.399 688.925H268.336C267.68 688.925 267.461 689.143 267.461 689.8V690.893C267.461 691.518 267.68 691.706 268.336 691.706ZM273.274 691.706H274.336C274.993 691.706 275.211 691.518 275.211 690.893V689.8C275.211 689.143 274.993 688.925 274.336 688.925H273.274C272.618 688.925 272.399 689.143 272.399 689.8V690.893C272.399 691.518 272.618 691.706 273.274 691.706ZM258.43 696.612H259.461C260.149 696.612 260.368 696.393 260.368 695.737V694.643C260.368 694.018 260.149 693.831 259.461 693.831H258.43C257.774 693.831 257.524 694.018 257.524 694.643V695.737C257.524 696.393 257.774 696.612 258.43 696.612ZM263.368 696.612H264.43C265.086 696.612 265.305 696.393 265.305 695.737V694.643C265.305 694.018 265.086 693.831 264.43 693.831H263.368C262.68 693.831 262.493 694.018 262.493 694.643V695.737C262.493 696.393 262.68 696.612 263.368 696.612ZM268.336 696.612H269.399C270.055 696.612 270.274 696.393 270.274 695.737V694.643C270.274 694.018 270.055 693.831 269.399 693.831H268.336C267.68 693.831 267.461 694.018 267.461 694.643V695.737C267.461 696.393 267.68 696.612 268.336 696.612ZM340.524 692.05C340.524 695.487 343.024 697.612 347.055 697.612H355.586C359.586 697.612 362.118 695.456 362.118 692.018C362.118 688.55 359.586 686.362 355.586 686.362H347.055C343.086 686.362 340.524 688.581 340.524 692.05ZM376.086 692.05C376.086 695.55 378.68 697.612 382.618 697.612H433.555C437.493 697.612 440.086 695.518 440.086 692.018C440.086 688.518 437.493 686.362 433.555 686.362H382.618C378.68 686.362 376.086 688.55 376.086 692.05ZM453.711 692.05C453.711 695.487 456.211 697.612 460.243 697.612H468.774C472.774 697.612 475.305 695.456 475.305 692.018C475.305 688.55 472.774 686.362 468.774 686.362H460.243C456.274 686.362 453.711 688.581 453.711 692.05ZM489.274 692.05C489.274 695.55 491.868 697.612 495.805 697.612H546.743C550.68 697.612 553.274 695.518 553.274 692.018C553.274 688.518 550.68 686.362 546.743 686.362H495.805C491.868 686.362 489.274 688.55 489.274 692.05Z" fill="white" fill-opacity="0.9"/>
<path d="M324.125 589H200C191.163 589 184 596.163 184 605V769.308C184 778.144 191.163 785.308 200 785.308H613.654M464.249 589H838C846.837 589 854 596.163 854 605V769.308C854 778.144 846.837 785.308 838 785.308H733.827" stroke="white" stroke-opacity="0.9" stroke-width="15" stroke-linecap="round"/>
<path d="M324.125 856.692H200C191.163 856.692 184 863.856 184 872.692V1037C184 1045.84 191.163 1053 200 1053H613.654M464.249 856.692H838C846.837 856.692 854 863.856 854 872.692V1037C854 1045.84 846.837 1053 838 1053H733.827" stroke="white" stroke-opacity="0.9" stroke-width="15" stroke-linecap="round"/>
<path d="M265.961 986.117C282.524 986.117 296.243 972.398 296.243 955.836C296.243 939.273 282.493 925.554 265.93 925.554C249.399 925.554 235.68 939.273 235.68 955.836C235.68 972.398 249.399 986.117 265.961 986.117ZM265.961 980.773C252.149 980.773 241.086 969.679 241.086 955.836C241.086 941.992 252.118 930.898 265.93 930.898C279.774 930.898 290.899 941.992 290.899 955.836C290.899 969.679 279.805 980.773 265.961 980.773ZM255.211 970.336H276.68C279.993 970.336 281.68 968.711 281.68 965.429V946.242C281.68 942.992 279.993 941.304 276.68 941.304H255.211C251.899 941.304 250.211 942.961 250.211 946.242V965.429C250.211 968.711 251.899 970.336 255.211 970.336ZM255.055 967.523C253.743 967.523 253.055 966.867 253.055 965.492V950.773C253.055 949.336 253.805 948.648 255.18 948.648H276.68C278.055 948.648 278.836 949.336 278.836 950.773V965.492C278.836 966.867 278.149 967.523 276.805 967.523H255.055ZM262.805 954.461H263.868C264.555 954.461 264.774 954.273 264.774 953.617V952.492C264.774 951.804 264.555 951.617 263.868 951.617H262.805C262.118 951.617 261.899 951.804 261.899 952.492V953.617C261.899 954.273 262.118 954.461 262.805 954.461ZM268.024 954.461H269.086C269.774 954.461 269.993 954.273 269.993 953.617V952.492C269.993 951.804 269.774 951.617 269.086 951.617H268.024C267.336 951.617 267.118 951.804 267.118 952.492V953.617C267.118 954.273 267.336 954.461 268.024 954.461ZM273.18 954.461H274.274C274.93 954.461 275.18 954.273 275.18 953.617V952.492C275.18 951.804 274.93 951.617 274.274 951.617H273.18C272.493 951.617 272.274 951.804 272.274 952.492V953.617C272.274 954.273 272.493 954.461 273.18 954.461ZM257.618 959.554H258.711C259.399 959.554 259.618 959.367 259.618 958.711V957.617C259.618 956.929 259.399 956.711 258.711 956.711H257.618C256.93 956.711 256.711 956.929 256.711 957.617V958.711C256.711 959.367 256.93 959.554 257.618 959.554ZM262.805 959.554H263.868C264.555 959.554 264.774 959.367 264.774 958.711V957.617C264.774 956.929 264.555 956.711 263.868 956.711H262.805C262.118 956.711 261.899 956.929 261.899 957.617V958.711C261.899 959.367 262.118 959.554 262.805 959.554ZM268.024 959.554H269.086C269.774 959.554 269.993 959.367 269.993 958.711V957.617C269.993 956.929 269.774 956.711 269.086 956.711H268.024C267.336 956.711 267.118 956.929 267.118 957.617V958.711C267.118 959.367 267.336 959.554 268.024 959.554ZM273.18 959.554H274.274C274.93 959.554 275.18 959.367 275.18 958.711V957.617C275.18 956.929 274.93 956.711 274.274 956.711H273.18C272.493 956.711 272.274 956.929 272.274 957.617V958.711C272.274 959.367 272.493 959.554 273.18 959.554ZM257.618 964.679H258.711C259.399 964.679 259.618 964.461 259.618 963.804V962.679C259.618 962.023 259.399 961.836 258.711 961.836H257.618C256.93 961.836 256.711 962.023 256.711 962.679V963.804C256.711 964.461 256.93 964.679 257.618 964.679ZM262.805 964.679H263.868C264.555 964.679 264.774 964.461 264.774 963.804V962.679C264.774 962.023 264.555 961.836 263.868 961.836H262.805C262.118 961.836 261.899 962.023 261.899 962.679V963.804C261.899 964.461 262.118 964.679 262.805 964.679ZM268.024 964.679H269.086C269.774 964.679 269.993 964.461 269.993 963.804V962.679C269.993 962.023 269.774 961.836 269.086 961.836H268.024C267.336 961.836 267.118 962.023 267.118 962.679V963.804C267.118 964.461 267.336 964.679 268.024 964.679ZM340.399 959.742C340.399 963.242 342.993 965.304 346.93 965.304H397.868C401.805 965.304 404.399 963.211 404.399 959.711C404.399 956.211 401.805 954.054 397.868 954.054H346.93C342.993 954.054 340.399 956.242 340.399 959.742ZM418.024 959.742C418.024 963.179 420.524 965.304 424.555 965.304H433.086C437.086 965.304 439.618 963.148 439.618 959.711C439.618 956.242 437.086 954.054 433.086 954.054H424.555C420.586 954.054 418.024 956.273 418.024 959.742ZM453.586 959.742C453.586 963.242 456.18 965.304 460.118 965.304H511.055C514.993 965.304 517.586 963.211 517.586 959.711C517.586 956.211 514.993 954.054 511.055 954.054H460.118C456.18 954.054 453.586 956.242 453.586 959.742ZM531.211 959.742C531.211 963.179 533.711 965.304 537.743 965.304H546.274C550.274 965.304 552.805 963.148 552.805 959.711C552.805 956.242 550.274 954.054 546.274 954.054H537.743C533.774 954.054 531.211 956.273 531.211 959.742Z" fill="white" fill-opacity="0.9"/>
<path d="M1006.72 624.781C1017.22 635.281 1032.97 634.766 1043.98 623.75L1085.56 582.125C1096.62 571.109 1097.09 555.406 1086.64 544.859C1076.14 534.359 1060.39 534.922 1049.38 545.891L1007.75 587.516C996.734 598.531 996.219 614.234 1006.72 624.781ZM1057.77 554.469C1064.05 548.188 1072.44 546.828 1078.53 552.969C1084.67 559.109 1083.41 567.359 1077.03 573.781L1060.3 590.469L1041.03 571.203L1057.77 554.469ZM1014.83 616.719C1008.69 610.625 1009.95 602.281 1016.38 595.859L1033.2 579.031L1052.52 598.297L1035.64 615.172C1029.36 621.5 1020.97 622.859 1014.83 616.719Z" fill="white" fill-opacity="0.9"/>
<path d="M1035.5 581.5L1033.38 579L1026 586L1016.5 595L1010.69 602.5V611.597L1015.5 617.839L1022 621.5L1029 620.5L1035.5 616L1053 598L1035.5 581.5Z" fill="white" fill-opacity="0.49"/>
<path d="M596.656 1267.55C606.688 1267.55 614.703 1258.92 614.703 1248.14C614.703 1237.55 606.594 1228.97 596.656 1228.97C586.766 1228.97 578.609 1237.64 578.656 1248.14C578.656 1258.97 586.625 1267.55 596.656 1267.55ZM691.438 1267.64C701.469 1267.64 709.484 1259.02 709.484 1248.19C709.484 1237.64 701.375 1229.06 691.438 1229.06C681.547 1229.06 673.344 1237.73 673.391 1248.23C673.438 1259.06 681.406 1267.64 691.438 1267.64ZM596.656 1258.03C592.109 1258.03 588.359 1254.09 588.312 1248.09C588.266 1242.47 592.156 1238.48 596.656 1238.48C601.203 1238.48 605.047 1242.47 605.047 1248.14C605.047 1254.05 601.297 1258.03 596.656 1258.03ZM691.438 1258.12C686.844 1258.12 683.094 1254.19 683.094 1248.19C683.047 1242.56 686.938 1238.58 691.438 1238.58C695.984 1238.58 699.781 1242.56 699.781 1248.19C699.781 1254.14 696.078 1258.12 691.438 1258.12ZM626.469 1270.22C630.172 1270.22 633.172 1267.22 633.172 1263.52C633.172 1259.81 630.172 1256.81 626.469 1256.81C622.719 1256.81 619.766 1259.81 619.766 1263.52C619.766 1267.22 622.719 1270.22 626.469 1270.22ZM644.047 1270.22C647.75 1270.22 650.75 1267.22 650.75 1263.52C650.75 1259.81 647.75 1256.81 644.047 1256.81C640.297 1256.81 637.344 1259.81 637.344 1263.52C637.344 1267.22 640.297 1270.22 644.047 1270.22ZM661.578 1270.22C665.281 1270.22 668.281 1267.22 668.281 1263.52C668.281 1259.81 665.281 1256.81 661.578 1256.81C657.828 1256.81 654.828 1259.81 654.828 1263.52C654.828 1267.22 657.828 1270.22 661.578 1270.22ZM573.641 1305.14H619.672C627.172 1305.14 631.016 1302.52 631.016 1296.98C631.016 1284.84 616.953 1271.48 596.656 1271.48C576.359 1271.48 562.297 1284.84 562.297 1296.98C562.297 1302.52 566.141 1305.14 573.641 1305.14ZM668.422 1305.23H714.453C721.953 1305.23 725.75 1302.61 725.75 1297.03C725.75 1284.94 711.734 1271.58 691.438 1271.58C671.094 1271.58 657.078 1284.94 657.078 1297.03C657.078 1302.61 660.875 1305.23 668.422 1305.23ZM573.969 1295.62C573.406 1295.62 573.266 1295.3 573.266 1294.97C573.266 1290.23 581.469 1281 596.656 1281C611.844 1281 620.047 1290.23 620.047 1294.97C620.047 1295.3 619.906 1295.62 619.344 1295.62H573.969ZM668.703 1295.72C668.188 1295.72 668 1295.39 668 1295.06C668 1290.33 676.25 1281.09 691.438 1281.09C706.625 1281.09 714.828 1290.33 714.828 1295.06C714.828 1295.39 714.641 1295.72 714.125 1295.72H668.703Z" fill="white" fill-opacity="0.9"/>
<path d="M1000.3 725.703C1000.3 744.828 1016.38 763.859 1040.61 779.797C1042.95 781.391 1045.44 782.844 1047.12 782.844C1048.77 782.844 1051.25 781.391 1053.64 779.797C1077.83 763.859 1093.91 744.828 1093.91 725.703C1093.91 707.797 1081.34 695.844 1066.48 695.844C1057.48 695.844 1050.97 699.688 1047.12 705.125C1043.28 699.688 1036.72 695.844 1027.72 695.844C1012.86 695.844 1000.3 707.797 1000.3 725.703ZM1013.98 725.562C1013.98 715.766 1020.73 708.969 1029.69 708.969C1036.86 708.969 1040.61 712.953 1043.28 716.656C1044.55 718.484 1045.67 719.328 1047.12 719.328C1048.58 719.328 1049.56 718.484 1050.88 716.656C1053.73 712.953 1057.39 708.969 1064.52 708.969C1073.47 708.969 1080.22 715.766 1080.22 725.562C1080.22 739.156 1066.72 755.328 1047.73 767.938C1047.45 768.125 1047.27 768.219 1047.12 768.219C1046.94 768.219 1046.75 768.125 1046.47 767.938C1027.48 755.328 1013.98 739.156 1013.98 725.562Z" fill="white" fill-opacity="0.9"/>
<path d="M1090.67 856.344L1093.53 853.438C1095.78 851.188 1095.92 847.953 1093.77 845.844L1092.22 844.297C1090.34 842.516 1087.02 842.891 1084.86 845L1082.09 847.766L1090.67 856.344ZM1020.64 933.875H1071.27C1081.11 933.875 1086.92 928.109 1086.92 917.75V872.281L1074.12 885.125V916.016C1074.12 919.531 1072.39 921.078 1069.67 921.078H1022.23C1018.95 921.078 1017.22 919.531 1017.22 916.016V869.234C1017.22 865.719 1018.95 864.172 1022.23 864.172H1053.5L1066.3 851.375H1020.64C1010.23 851.375 1004.42 857.141 1004.42 867.5V917.75C1004.42 928.109 1010.23 933.875 1020.64 933.875ZM1038.97 901.953L1049.05 898.016L1087.02 860L1078.44 851.422L1040.47 889.438L1036.44 899.328C1035.78 901.016 1037.52 902.516 1038.97 901.953Z" fill="white" fill-opacity="0.9"/>
<path d="M1042.25 1054.81C1045.44 1054.81 1047.92 1052.23 1047.92 1049.23V1006.81L1047.41 1000.34L1049.52 1003.91L1054.44 1009.11C1055.38 1010.14 1056.69 1010.7 1058.09 1010.7C1060.58 1010.7 1062.92 1008.83 1062.92 1006.06C1062.92 1004.66 1062.36 1003.67 1061.42 1002.69L1046.8 988.672C1045.3 987.219 1043.8 986.703 1042.25 986.703C1040.75 986.703 1039.25 987.219 1037.75 988.672L1023.12 1002.69C1022.19 1003.67 1021.62 1004.66 1021.62 1006.06C1021.62 1008.83 1023.97 1010.7 1026.45 1010.7C1027.86 1010.7 1029.17 1010.14 1030.11 1009.11L1035.03 1003.91L1037.14 1000.34L1036.62 1006.81V1049.23C1036.62 1052.23 1039.11 1054.81 1042.25 1054.81ZM1016.52 1091.8H1068.03C1078.44 1091.8 1084.25 1085.98 1084.25 1075.67V1033.62C1084.25 1023.27 1078.44 1017.45 1068.03 1017.45H1056.92V1030.25H1066.39C1069.72 1030.25 1071.45 1031.8 1071.45 1035.31V1073.94C1071.45 1077.45 1069.72 1079 1066.39 1079H1018.11C1014.83 1079 1013.09 1077.45 1013.09 1073.94V1035.31C1013.09 1031.8 1014.83 1030.25 1018.11 1030.25H1027.91V1017.45H1016.52C1006.11 1017.45 1000.3 1023.27 1000.3 1033.62V1075.67C1000.3 1085.98 1006.11 1091.8 1016.52 1091.8Z" fill="white" fill-opacity="0.9"/>
</g>
<defs>
<filter id="filter0_b_148_2" x="-1" y="18" width="1291" height="1697" filterUnits="userSpaceOnUse" color-interpolation-filters="sRGB">
<feFlood flood-opacity="0" result="BackgroundImageFix"/>
<feGaussianBlur in="BackgroundImageFix" stdDeviation="12"/>
<feComposite in2="SourceAlpha" operator="in" result="effect1_backgroundBlur_148_2"/>
<feBlend mode="normal" in="SourceGraphic" in2="effect1_backgroundBlur_148_2" result="shape"/>
</filter>
</defs>
</svg>
