<svg width="528" height="1024" viewBox="0 0 528 1024" fill="none" xmlns="http://www.w3.org/2000/svg">
<g filter="url(#filter0_b_38_112)">
<rect x="38" y="57" width="452" height="909" rx="66" stroke="#242424" stroke-opacity="0.9" stroke-width="20"/>
<rect x="214" y="94" width="99" height="36" rx="18" stroke="#242424" stroke-opacity="0.9" stroke-width="12"/>
<path d="M158.5 248H99C90.1634 248 83 255.163 83 264V364C83 372.837 90.1634 380 99 380H314.5M234 248H428C436.837 248 444 255.163 444 264V364C444 372.837 436.837 380 428 380H379.25" stroke="#242424" stroke-opacity="0.9" stroke-width="12" stroke-linecap="round"/>
<path d="M158.5 428H99C90.1634 428 83 435.163 83 444V544C83 552.837 90.1634 560 99 560H314.5M234 428H428C436.837 428 444 435.163 444 444V544C444 552.837 436.837 560 428 560H379.25" stroke="#242424" stroke-opacity="0.9" stroke-width="12" stroke-linecap="round"/>
<g filter="url(#filter1_b_38_112)">
<path d="M119.5 684L116.5 683L109.5 686.5L103 693L99.5 699.5L100 706.5L103.5 711L108 714L116.5 712L123.5 706.5L131.5 695.5L119.5 684Z" fill="#242424" fill-opacity="0.49"/>
</g>
<path d="M130.5 331.859C141.008 331.859 149.699 323.168 149.699 312.66C149.699 302.152 140.988 293.48 130.48 293.48C119.973 293.48 111.301 302.152 111.301 312.66C111.301 323.168 119.992 331.859 130.5 331.859ZM130.5 327.816C122.102 327.816 115.363 321.078 115.363 312.66C115.363 304.262 122.082 297.504 130.48 297.504C138.898 297.504 145.656 304.262 145.656 312.66C145.656 321.078 138.898 327.816 130.5 327.816ZM123.938 321.586H137.043C139.113 321.586 140.188 320.512 140.188 318.461V306.879C140.188 304.828 139.113 303.754 137.043 303.754H123.938C121.867 303.754 120.773 304.828 120.773 306.879V318.461C120.773 320.512 121.867 321.586 123.938 321.586ZM123.957 319.555C123.195 319.555 122.805 319.184 122.805 318.402V309.652C122.805 308.832 123.234 308.441 124.016 308.441H136.945C137.746 308.441 138.156 308.832 138.156 309.652V318.402C138.156 319.184 137.785 319.555 137.004 319.555H123.957ZM128.605 311.859H129.27C129.68 311.859 129.816 311.723 129.816 311.332V310.648C129.816 310.238 129.68 310.102 129.27 310.102H128.605C128.176 310.102 128.059 310.238 128.059 310.648V311.332C128.059 311.723 128.176 311.859 128.605 311.859ZM131.711 311.859H132.375C132.785 311.859 132.922 311.723 132.922 311.332V310.648C132.922 310.238 132.785 310.102 132.375 310.102H131.711C131.301 310.102 131.164 310.238 131.164 310.648V311.332C131.164 311.723 131.301 311.859 131.711 311.859ZM134.797 311.859H135.461C135.871 311.859 136.008 311.723 136.008 311.332V310.648C136.008 310.238 135.871 310.102 135.461 310.102H134.797C134.387 310.102 134.25 310.238 134.25 310.648V311.332C134.25 311.723 134.387 311.859 134.797 311.859ZM125.52 314.887H126.164C126.594 314.887 126.73 314.77 126.73 314.379V313.695C126.73 313.285 126.594 313.148 126.164 313.148H125.52C125.109 313.148 124.953 313.285 124.953 313.695V314.379C124.953 314.77 125.109 314.887 125.52 314.887ZM128.605 314.887H129.27C129.68 314.887 129.816 314.77 129.816 314.379V313.695C129.816 313.285 129.68 313.148 129.27 313.148H128.605C128.176 313.148 128.059 313.285 128.059 313.695V314.379C128.059 314.77 128.176 314.887 128.605 314.887ZM131.711 314.887H132.375C132.785 314.887 132.922 314.77 132.922 314.379V313.695C132.922 313.285 132.785 313.148 132.375 313.148H131.711C131.301 313.148 131.164 313.285 131.164 313.695V314.379C131.164 314.77 131.301 314.887 131.711 314.887ZM134.797 314.887H135.461C135.871 314.887 136.008 314.77 136.008 314.379V313.695C136.008 313.285 135.871 313.148 135.461 313.148H134.797C134.387 313.148 134.25 313.285 134.25 313.695V314.379C134.25 314.77 134.387 314.887 134.797 314.887ZM125.52 317.953H126.164C126.594 317.953 126.73 317.816 126.73 317.406V316.723C126.73 316.332 126.594 316.215 126.164 316.215H125.52C125.109 316.215 124.953 316.332 124.953 316.723V317.406C124.953 317.816 125.109 317.953 125.52 317.953ZM128.605 317.953H129.27C129.68 317.953 129.816 317.816 129.816 317.406V316.723C129.816 316.332 129.68 316.215 129.27 316.215H128.605C128.176 316.215 128.059 316.332 128.059 316.723V317.406C128.059 317.816 128.176 317.953 128.605 317.953ZM131.711 317.953H132.375C132.785 317.953 132.922 317.816 132.922 317.406V316.723C132.922 316.332 132.785 316.215 132.375 316.215H131.711C131.301 316.215 131.164 316.332 131.164 316.723V317.406C131.164 317.816 131.301 317.953 131.711 317.953ZM176.828 315.102C176.828 317.25 178.391 318.578 180.91 318.578H186.242C188.742 318.578 190.324 317.23 190.324 315.082C190.324 312.914 188.742 311.547 186.242 311.547H180.91C178.43 311.547 176.828 312.934 176.828 315.102ZM199.055 315.102C199.055 317.289 200.676 318.578 203.137 318.578H234.973C237.434 318.578 239.055 317.27 239.055 315.082C239.055 312.895 237.434 311.547 234.973 311.547H203.137C200.676 311.547 199.055 312.914 199.055 315.102ZM247.57 315.102C247.57 317.25 249.133 318.578 251.652 318.578H256.984C259.484 318.578 261.066 317.23 261.066 315.082C261.066 312.914 259.484 311.547 256.984 311.547H251.652C249.172 311.547 247.57 312.934 247.57 315.102ZM269.797 315.102C269.797 317.289 271.418 318.578 273.879 318.578H305.715C308.176 318.578 309.797 317.27 309.797 315.082C309.797 312.895 308.176 311.547 305.715 311.547H273.879C271.418 311.547 269.797 312.914 269.797 315.102Z" fill="#242424" fill-opacity="0.9"/>
<path d="M130.227 511.586C140.578 511.586 149.152 503.012 149.152 492.66C149.152 482.309 140.559 473.734 130.207 473.734C119.875 473.734 111.301 482.309 111.301 492.66C111.301 503.012 119.875 511.586 130.227 511.586ZM130.227 508.246C121.594 508.246 114.68 501.312 114.68 492.66C114.68 484.008 121.574 477.074 130.207 477.074C138.859 477.074 145.812 484.008 145.812 492.66C145.812 501.312 138.879 508.246 130.227 508.246ZM123.508 501.723H136.926C138.996 501.723 140.051 500.707 140.051 498.656V486.664C140.051 484.633 138.996 483.578 136.926 483.578H123.508C121.438 483.578 120.383 484.613 120.383 486.664V498.656C120.383 500.707 121.438 501.723 123.508 501.723ZM123.41 499.965C122.59 499.965 122.16 499.555 122.16 498.695V489.496C122.16 488.598 122.629 488.168 123.488 488.168H136.926C137.785 488.168 138.273 488.598 138.273 489.496V498.695C138.273 499.555 137.844 499.965 137.004 499.965H123.41ZM128.254 491.801H128.918C129.348 491.801 129.484 491.684 129.484 491.273V490.57C129.484 490.141 129.348 490.023 128.918 490.023H128.254C127.824 490.023 127.688 490.141 127.688 490.57V491.273C127.688 491.684 127.824 491.801 128.254 491.801ZM131.516 491.801H132.18C132.609 491.801 132.746 491.684 132.746 491.273V490.57C132.746 490.141 132.609 490.023 132.18 490.023H131.516C131.086 490.023 130.949 490.141 130.949 490.57V491.273C130.949 491.684 131.086 491.801 131.516 491.801ZM134.738 491.801H135.422C135.832 491.801 135.988 491.684 135.988 491.273V490.57C135.988 490.141 135.832 490.023 135.422 490.023H134.738C134.309 490.023 134.172 490.141 134.172 490.57V491.273C134.172 491.684 134.309 491.801 134.738 491.801ZM125.012 494.984H125.695C126.125 494.984 126.262 494.867 126.262 494.457V493.773C126.262 493.344 126.125 493.207 125.695 493.207H125.012C124.582 493.207 124.445 493.344 124.445 493.773V494.457C124.445 494.867 124.582 494.984 125.012 494.984ZM128.254 494.984H128.918C129.348 494.984 129.484 494.867 129.484 494.457V493.773C129.484 493.344 129.348 493.207 128.918 493.207H128.254C127.824 493.207 127.688 493.344 127.688 493.773V494.457C127.688 494.867 127.824 494.984 128.254 494.984ZM131.516 494.984H132.18C132.609 494.984 132.746 494.867 132.746 494.457V493.773C132.746 493.344 132.609 493.207 132.18 493.207H131.516C131.086 493.207 130.949 493.344 130.949 493.773V494.457C130.949 494.867 131.086 494.984 131.516 494.984ZM134.738 494.984H135.422C135.832 494.984 135.988 494.867 135.988 494.457V493.773C135.988 493.344 135.832 493.207 135.422 493.207H134.738C134.309 493.207 134.172 493.344 134.172 493.773V494.457C134.172 494.867 134.309 494.984 134.738 494.984ZM125.012 498.188H125.695C126.125 498.188 126.262 498.051 126.262 497.641V496.938C126.262 496.527 126.125 496.41 125.695 496.41H125.012C124.582 496.41 124.445 496.527 124.445 496.938V497.641C124.445 498.051 124.582 498.188 125.012 498.188ZM128.254 498.188H128.918C129.348 498.188 129.484 498.051 129.484 497.641V496.938C129.484 496.527 129.348 496.41 128.918 496.41H128.254C127.824 496.41 127.688 496.527 127.688 496.938V497.641C127.688 498.051 127.824 498.188 128.254 498.188ZM131.516 498.188H132.18C132.609 498.188 132.746 498.051 132.746 497.641V496.938C132.746 496.527 132.609 496.41 132.18 496.41H131.516C131.086 496.41 130.949 496.527 130.949 496.938V497.641C130.949 498.051 131.086 498.188 131.516 498.188ZM176.75 495.102C176.75 497.289 178.371 498.578 180.832 498.578H212.668C215.129 498.578 216.75 497.27 216.75 495.082C216.75 492.895 215.129 491.547 212.668 491.547H180.832C178.371 491.547 176.75 492.914 176.75 495.102ZM225.266 495.102C225.266 497.25 226.828 498.578 229.348 498.578H234.68C237.18 498.578 238.762 497.23 238.762 495.082C238.762 492.914 237.18 491.547 234.68 491.547H229.348C226.867 491.547 225.266 492.934 225.266 495.102ZM247.492 495.102C247.492 497.289 249.113 498.578 251.574 498.578H283.41C285.871 498.578 287.492 497.27 287.492 495.082C287.492 492.895 285.871 491.547 283.41 491.547H251.574C249.113 491.547 247.492 492.914 247.492 495.102ZM296.008 495.102C296.008 497.25 297.57 498.578 300.09 498.578H305.422C307.922 498.578 309.504 497.23 309.504 495.082C309.504 492.914 307.922 491.547 305.422 491.547H300.09C297.609 491.547 296.008 492.934 296.008 495.102Z" fill="#242424" fill-opacity="0.9"/>
<path d="M99.8125 714.188C106.812 721.188 117.312 720.844 124.656 713.5L152.375 685.75C159.75 678.406 160.062 667.938 153.094 660.906C146.094 653.906 135.594 654.281 128.25 661.594L100.5 689.344C93.1562 696.688 92.8125 707.156 99.8125 714.188ZM133.844 667.312C138.031 663.125 143.625 662.219 147.688 666.312C151.781 670.406 150.938 675.906 146.688 680.188L135.531 691.312L122.688 678.469L133.844 667.312ZM105.219 708.812C101.125 704.75 101.969 699.188 106.25 694.906L117.469 683.688L130.344 696.531L119.094 707.781C114.906 712 109.312 712.906 105.219 708.812Z" fill="#242424" fill-opacity="0.9"/>
<path d="M231.438 812.031C238.125 812.031 243.469 806.281 243.469 799.094C243.469 792.031 238.062 786.312 231.438 786.312C224.844 786.312 219.406 792.094 219.438 799.094C219.438 806.312 224.75 812.031 231.438 812.031ZM294.625 812.094C301.312 812.094 306.656 806.344 306.656 799.125C306.656 792.094 301.25 786.375 294.625 786.375C288.031 786.375 282.562 792.156 282.594 799.156C282.625 806.375 287.938 812.094 294.625 812.094ZM231.438 805.688C228.406 805.688 225.906 803.062 225.875 799.062C225.844 795.312 228.438 792.656 231.438 792.656C234.469 792.656 237.031 795.312 237.031 799.094C237.031 803.031 234.531 805.688 231.438 805.688ZM294.625 805.75C291.562 805.75 289.062 803.125 289.062 799.125C289.031 795.375 291.625 792.719 294.625 792.719C297.656 792.719 300.188 795.375 300.188 799.125C300.188 803.094 297.719 805.75 294.625 805.75ZM251.312 813.812C253.781 813.812 255.781 811.812 255.781 809.344C255.781 806.875 253.781 804.875 251.312 804.875C248.812 804.875 246.844 806.875 246.844 809.344C246.844 811.812 248.812 813.812 251.312 813.812ZM263.031 813.812C265.5 813.812 267.5 811.812 267.5 809.344C267.5 806.875 265.5 804.875 263.031 804.875C260.531 804.875 258.562 806.875 258.562 809.344C258.562 811.812 260.531 813.812 263.031 813.812ZM274.719 813.812C277.188 813.812 279.188 811.812 279.188 809.344C279.188 806.875 277.188 804.875 274.719 804.875C272.219 804.875 270.219 806.875 270.219 809.344C270.219 811.812 272.219 813.812 274.719 813.812ZM216.094 837.094H246.781C251.781 837.094 254.344 835.344 254.344 831.656C254.344 823.562 244.969 814.656 231.438 814.656C217.906 814.656 208.531 823.562 208.531 831.656C208.531 835.344 211.094 837.094 216.094 837.094ZM279.281 837.156H309.969C314.969 837.156 317.5 835.406 317.5 831.688C317.5 823.625 308.156 814.719 294.625 814.719C281.062 814.719 271.719 823.625 271.719 831.688C271.719 835.406 274.25 837.156 279.281 837.156ZM216.312 830.75C215.938 830.75 215.844 830.531 215.844 830.312C215.844 827.156 221.312 821 231.438 821C241.562 821 247.031 827.156 247.031 830.312C247.031 830.531 246.938 830.75 246.562 830.75H216.312ZM279.469 830.812C279.125 830.812 279 830.594 279 830.375C279 827.219 284.5 821.062 294.625 821.062C304.75 821.062 310.219 827.219 310.219 830.375C310.219 830.594 310.094 830.812 309.75 830.812H279.469Z" fill="#242424" fill-opacity="0.9"/>
<path d="M187.531 679.469C187.531 692.219 198.25 704.906 214.406 715.531C215.969 716.594 217.625 717.562 218.75 717.562C219.844 717.562 221.5 716.594 223.094 715.531C239.219 704.906 249.938 692.219 249.938 679.469C249.938 667.531 241.562 659.562 231.656 659.562C225.656 659.562 221.312 662.125 218.75 665.75C216.188 662.125 211.812 659.562 205.812 659.562C195.906 659.562 187.531 667.531 187.531 679.469ZM196.656 679.375C196.656 672.844 201.156 668.312 207.125 668.312C211.906 668.312 214.406 670.969 216.188 673.438C217.031 674.656 217.781 675.219 218.75 675.219C219.719 675.219 220.375 674.656 221.25 673.438C223.156 670.969 225.594 668.312 230.344 668.312C236.312 668.312 240.812 672.844 240.812 679.375C240.812 688.438 231.812 699.219 219.156 707.625C218.969 707.75 218.844 707.812 218.75 707.812C218.625 707.812 218.5 707.75 218.312 707.625C205.656 699.219 196.656 688.438 196.656 679.375Z" fill="#242424" fill-opacity="0.9"/>
<path d="M340.781 664.562L342.688 662.625C344.188 661.125 344.281 658.969 342.844 657.562L341.812 656.531C340.562 655.344 338.344 655.594 336.906 657L335.062 658.844L340.781 664.562ZM294.094 716.25H327.844C334.406 716.25 338.281 712.406 338.281 705.5V675.188L329.75 683.75V704.344C329.75 706.688 328.594 707.719 326.781 707.719H295.156C292.969 707.719 291.812 706.688 291.812 704.344V673.156C291.812 670.812 292.969 669.781 295.156 669.781H316L324.531 661.25H294.094C287.156 661.25 283.281 665.094 283.281 672V705.5C283.281 712.406 287.156 716.25 294.094 716.25ZM306.312 694.969L313.031 692.344L338.344 667L332.625 661.281L307.312 686.625L304.625 693.219C304.188 694.344 305.344 695.344 306.312 694.969Z" fill="#242424" fill-opacity="0.9"/>
<path d="M399.5 694.875C401.625 694.875 403.281 693.156 403.281 691.156V662.875L402.938 658.562L404.344 660.938L407.625 664.406C408.25 665.094 409.125 665.469 410.062 665.469C411.719 665.469 413.281 664.219 413.281 662.375C413.281 661.438 412.906 660.781 412.281 660.125L402.531 650.781C401.531 649.812 400.531 649.469 399.5 649.469C398.5 649.469 397.5 649.812 396.5 650.781L386.75 660.125C386.125 660.781 385.75 661.438 385.75 662.375C385.75 664.219 387.312 665.469 388.969 665.469C389.906 665.469 390.781 665.094 391.406 664.406L394.688 660.938L396.094 658.562L395.75 662.875V691.156C395.75 693.156 397.406 694.875 399.5 694.875ZM382.344 719.531H416.688C423.625 719.531 427.5 715.656 427.5 708.781V680.75C427.5 673.844 423.625 669.969 416.688 669.969H409.281V678.5H415.594C417.812 678.5 418.969 679.531 418.969 681.875V707.625C418.969 709.969 417.812 711 415.594 711H383.406C381.219 711 380.062 709.969 380.062 707.625V681.875C380.062 679.531 381.219 678.5 383.406 678.5H389.938V669.969H382.344C375.406 669.969 371.531 673.844 371.531 680.75V708.781C371.531 715.656 375.406 719.531 382.344 719.531Z" fill="#242424" fill-opacity="0.9"/>
</g>
<defs>
<filter id="filter0_b_38_112" x="4" y="23" width="520" height="977" filterUnits="userSpaceOnUse" color-interpolation-filters="sRGB">
<feFlood flood-opacity="0" result="BackgroundImageFix"/>
<feGaussianBlur in="BackgroundImageFix" stdDeviation="12"/>
<feComposite in2="SourceAlpha" operator="in" result="effect1_backgroundBlur_38_112"/>
<feBlend mode="normal" in="SourceGraphic" in2="effect1_backgroundBlur_38_112" result="shape"/>
</filter>
<filter id="filter1_b_38_112" x="87.5" y="671" width="56" height="55" filterUnits="userSpaceOnUse" color-interpolation-filters="sRGB">
<feFlood flood-opacity="0" result="BackgroundImageFix"/>
<feGaussianBlur in="BackgroundImageFix" stdDeviation="6"/>
<feComposite in2="SourceAlpha" operator="in" result="effect1_backgroundBlur_38_112"/>
<feBlend mode="normal" in="SourceGraphic" in2="effect1_backgroundBlur_38_112" result="shape"/>
</filter>
</defs>
</svg>
